<svg width="1200" height="460" viewBox="0 0 1200 460" fill="none" xmlns="http://www.w3.org/2000/svg">
  <title>BLANC Living Mobile — featured project</title>
  <desc>A premium dark project card showing the BLANC Living Mobile app and its technology stack.</desc>
  <defs>
    <linearGradient id="cardBg" x1="0" y1="0" x2="1200" y2="460" gradientUnits="userSpaceOnUse">
      <stop stop-color="#07111F"/>
      <stop offset="0.55" stop-color="#101526"/>
      <stop offset="1" stop-color="#1A1024"/>
    </linearGradient>
    <linearGradient id="gold" x1="94" y1="92" x2="552" y2="337" gradientUnits="userSpaceOnUse">
      <stop stop-color="#F3E5B5"/>
      <stop offset="0.48" stop-color="#C8A968"/>
      <stop offset="1" stop-color="#9A7541"/>
    </linearGradient>
    <radialGradient id="violetGlow" cx="0" cy="0" r="1" gradientUnits="userSpaceOnUse" gradientTransform="translate(1044 116) rotate(135) scale(470 340)">
      <stop stop-color="#8B5CF6" stop-opacity="0.28"/>
      <stop offset="1" stop-color="#8B5CF6" stop-opacity="0"/>
    </radialGradient>
    <pattern id="dots" width="28" height="28" patternUnits="userSpaceOnUse">
      <circle cx="2" cy="2" r="1.4" fill="#94A3B8" fill-opacity="0.12"/>
    </pattern>
  </defs>

  <rect width="1200" height="460" rx="28" fill="url(#cardBg)"/>
  <rect width="1200" height="460" rx="28" fill="url(#violetGlow)"/>
  <rect width="1200" height="460" rx="28" fill="url(#dots)"/>
  <rect x="1" y="1" width="1198" height="458" rx="27" stroke="#C8A968" stroke-opacity="0.38" stroke-width="2"/>

  <rect x="76" y="62" width="176" height="36" rx="18" fill="#211D1A" stroke="#C8A968" stroke-opacity="0.48"/>
  <circle cx="99" cy="80" r="5" fill="#D8BD7A"/>
  <text x="115" y="85" fill="#E8D7A7" font-family="Arial, Helvetica, sans-serif" font-size="13" font-weight="700" letter-spacing="2">FEATURED BUILD</text>

  <text x="75" y="178" fill="#F8FAFC" font-family="Arial, Helvetica, sans-serif" font-size="56" font-weight="800" letter-spacing="1">BLANC LIVING</text>
  <text x="78" y="224" fill="#D8BD7A" font-family="Arial, Helvetica, sans-serif" font-size="23" font-weight="700" letter-spacing="5">MOBILE EXPERIENCE</text>
  <text x="78" y="270" fill="#A7B1C2" font-family="Arial, Helvetica, sans-serif" font-size="17">Luxury garment care, translated into a refined cross-platform app.</text>

  <g font-family="Arial, Helvetica, sans-serif" font-size="13" font-weight="700" letter-spacing="1.3">
    <rect x="76" y="315" width="158" height="42" rx="11" fill="#111C2C" stroke="#67E8F9" stroke-opacity="0.34"/>
    <text x="99" y="341" fill="#CFFAFE">REACT NATIVE</text>
    <rect x="246" y="315" width="90" height="42" rx="11" fill="#111C2C" stroke="#818CF8" stroke-opacity="0.34"/>
    <text x="270" y="341" fill="#E0E7FF">EXPO</text>
    <rect x="348" y="315" width="136" height="42" rx="11" fill="#111C2C" stroke="#C084FC" stroke-opacity="0.34"/>
    <text x="368" y="341" fill="#F3E8FF">TYPESCRIPT</text>
  </g>

  <text x="77" y="401" fill="#64748B" font-family="Arial, Helvetica, sans-serif" font-size="13" letter-spacing="2">08 SERVICES  ·  12 SCREENS  ·  18/18 EXPO CHECKS</text>

  <g transform="translate(830 38)">
    <rect x="0" y="0" width="238" height="388" rx="42" fill="#05070B" stroke="#CBD5E1" stroke-opacity="0.34" stroke-width="3"/>
    <rect x="12" y="12" width="214" height="364" rx="32" fill="#F4F1EA"/>
    <rect x="82" y="9" width="74" height="16" rx="8" fill="#05070B"/>
    <rect x="12" y="12" width="214" height="135" rx="32" fill="#D8CFBF"/>
    <rect x="12" y="115" width="214" height="32" fill="#D8CFBF"/>
    <path d="M36 55H202" stroke="#FAFAF8" stroke-opacity="0.55"/>
    <text x="36" y="44" fill="#111111" font-family="Georgia, serif" font-size="22" font-weight="700">BLANC</text>
    <text x="36" y="89" fill="#111111" font-family="Georgia, serif" font-size="20">Your garments</text>
    <text x="36" y="113" fill="#111111" font-family="Georgia, serif" font-size="20">have a story.</text>
    <rect x="36" y="128" width="94" height="24" rx="6" fill="#111111"/>
    <text x="49" y="144" fill="#FFFFFF" font-family="Arial, sans-serif" font-size="7" font-weight="700" letter-spacing="0.8">BOOK COLLECTION</text>

    <text x="30" y="180" fill="#A17E3D" font-family="Arial, sans-serif" font-size="7" font-weight="700" letter-spacing="1.3">SPECIALIST CARE</text>
    <text x="30" y="204" fill="#111111" font-family="Georgia, serif" font-size="19">Every piece.</text>
    <rect x="30" y="222" width="76" height="92" rx="10" fill="#E8E1D4"/>
    <rect x="116" y="222" width="76" height="92" rx="10" fill="#DDD3C3"/>
    <rect x="38" y="232" width="60" height="48" rx="6" fill="#C8B9A2"/>
    <rect x="124" y="232" width="60" height="48" rx="6" fill="#BDAE96"/>
    <text x="40" y="296" fill="#111111" font-family="Arial, sans-serif" font-size="7" font-weight="700">DRY CLEANING</text>
    <text x="126" y="296" fill="#111111" font-family="Arial, sans-serif" font-size="7" font-weight="700">ALTERATIONS</text>
    <rect x="30" y="330" width="162" height="27" rx="8" fill="#111111"/>
    <circle cx="57" cy="343.5" r="4" fill="#D8BD7A"/>
    <circle cx="97" cy="343.5" r="4" fill="#FFFFFF" fill-opacity="0.55"/>
    <circle cx="137" cy="343.5" r="4" fill="#FFFFFF" fill-opacity="0.55"/>
    <circle cx="177" cy="343.5" r="4" fill="#FFFFFF" fill-opacity="0.55"/>
  </g>

  <circle cx="1077" cy="92" r="52" stroke="#67E8F9" stroke-opacity="0.16"/>
  <circle cx="1101" cy="366" r="74" stroke="#C084FC" stroke-opacity="0.14"/>
</svg>
